<svg height="40pt" viewBox="0 0 511.99575 40" width="40pt" xmlns="http://www.w3.org/2000/svg"><path d="m279.425781 164.59375-.304687-35.179688 11.070312-12.578124c8.183594-9.289063 21.976563-11.09375 32.269532-4.214844l78.597656 52.519531c11.34375 7.578125 14.394531 22.921875 6.816406 34.265625-7.582031 11.34375-22.921875 14.394531-34.265625 6.8125l-60.621094-40.503906zm0 0" fill="#ffb69e"/><path d="m487.292969 280.28125h-135.675781l-26.335938-24.601562 26.335938-24.601563h135.675781c13.644531 0 24.703125 11.058594 24.703125 24.703125 0 13.640625-11.058594 24.5-24.703125 24.5zm0 0" fill="#ffb69e"/><path d="m279.121094 129.414062-48.921875 55.570313c-9.015625 10.242187-8.019531 25.851563 2.222656 34.867187 10.222656 9.003907 25.835937 8.035157 34.863281-2.21875l45.703125-51.917968zm0 0" fill="#414b82"/><path d="m351.617188 231.074219h-109.332032c-13.644531 0-24.707031 11.0625-24.707031 24.707031 0 13.640625 11.0625 24.5 24.707031 24.5h109.328125v-49.207031zm0 0" fill="#414b82"/><path d="m257.921875 231.460938c8.175781-12.925782 10.703125-28.636719 6.988281-43.472657-3.710937-14.839843-13.339844-27.507812-26.640625-35.058593l-84.746093-48.121094s8.644531-46.664063 14.378906-80.421875c1.089844-6.699219-1.195313-13.507813-6.109375-18.195313-4.914063-4.6875-11.824219-6.652344-18.460938-5.25l-91.046875 19.222656c-11.125 2.347657-18.238281 13.269532-15.890625 24.394532 2.351563 11.125 13.277344 18.238281 24.394531 15.890625l61.652344-13.015625-6.546875 40.261718c-1.988281 3.5-50.320312 88.625-52.015625 91.609376-2.730468 4.816406-3.410156 10.523437-1.886718 15.84375l20.28125 70.652343c2.527343 8.816407 10.582031 14.464844 19.753906 14.480469h92.28125.03125c8.835937 0 16.355468-5.234375 19.273437-12.902344l15.714844 9.289063zm-140.347656 8.101562-10-34.847656 59.097656 34.925781zm0 0" fill="#ffb69e"/><path d="m264.910156 187.988281c-3.710937-14.839843-13.339844-27.507812-26.640625-35.058593l-84.746093-48.121094s4.507812-24.34375 9.175781-50.585938l-40.359375-6.1875-6.445313 39.660156c-.640625 1.125-6.089843 10.726563-13.242187 23.316407 7.328125 4.28125 12.128906 12.34375 12.53125 21.351562.59375 13.28125-11.726563 24.589844-24.589844 24.589844-4.503906 0-8.625-1.210937-12.152344-3.292969-7.855468 13.832032-13.980468 24.617188-14.5625 25.644532-2.730468 4.816406-3.410156 10.523437-1.886718 15.84375l14.519531 50.589843 39.820312-10.503906-8.757812-30.519531 121.753906 71.953125 28.59375-45.207031c8.175781-12.925782 10.703125-28.636719 6.988281-43.472657zm0 0" fill="#64afff"/><g fill="#ffb69e"><path d="m194.339844 280.28125c-.011719 0-.019532 0-.03125 0h-92.28125c-11.371094-.019531-20.574219-8.820312-20.554688-20.191406.019532-11.355469 9.230469-20.554688 20.585938-20.554688h.03125l92.28125.148438c11.371094.019531 20.570312 9.25 20.554687 20.621094-.019531 11.355468-9.230469 19.976562-20.585937 19.976562zm0 0"/><path d="m63.730469 63.707031c-20.492188-11.632812-46.535157-4.453125-58.167969 16.039063-11.632812 20.492187-4.453125 46.53125 16.039062 58.167968 20.492188 11.632813 46.535157 4.453126 58.167969-16.039062 11.632813-20.492188 4.453125-46.535156-16.039062-58.167969zm0 0"/></g></svg>
