<svg height="40pt" viewBox="0 0 511 511.99963" width="40pt" xmlns="http://www.w3.org/2000/svg"><g fill="#ffb69e"><path d="m260.972656 123.859375c-11.316406-19.105469-35.976562-25.417969-55.082031-14.101563-19.105469 11.3125-25.417969 35.972657-14.105469 55.078126 11.316406 19.105468 35.976563 25.421874 55.082032 14.105468 19.105468-11.316406 25.421874-35.976562 14.105468-55.082031zm0 0"/><path d="m350.054688 492.898438-87.855469-61.042969c-9.1875-6.382813-12.535157-18.402344-7.96875-28.613281l9.613281-21.511719 32.636719-18.238281 10.675781 35.429687-2.550781 5.707031 72.015625 50.039063c10.554687 7.335937 13.167968 21.839843 5.832031 32.398437-7.324219 10.539063-21.824219 13.179688-32.398437 5.832032zm0 0"/><path d="m449.289062 500.945312-63.359374-102.023437 4.007812-38.429687 35.761719 14.121093 63.207031 101.875c6.753906 10.941407 3.359375 25.285157-7.582031 32.039063-10.9375 6.753906-25.28125 3.359375-32.035157-7.582032zm0 0"/></g><path d="m307.15625 398.921875 29.519531-66.050781c5.25-11.738282-.015625-25.507813-11.753906-30.75-11.734375-5.25-25.503906.015625-30.75 11.753906l-30.328125 67.855469zm0 0" fill="#414b82"/><path d="m385.929688 398.921875 39.769531-24.308594-35.761719-57.640625c-6.753906-10.941406-20.957031-14.914062-31.894531-8.160156-10.941407 6.753906-14.996094 20.992188-8.242188 31.933594zm0 0" fill="#414b82"/><path d="m389.9375 316.972656-73.511719-124.109375.320313-.851562 28.148437-84.820313c1.40625-4.242187 1.304688-8.84375-.289062-13.019531l-31.144531-81.679687c-3.816407-10.007813-15.027344-15.03125-25.039063-11.214844-10.007813 3.820312-15.03125 15.027344-11.214844 25.039062l28.683594 75.21875-24.664063 74.328125c-.085937.046875-.171874.085938-.257812.132813l-51.152344 30.300781-77.882812-24.1875-55.0625-41.078125c-8.585938-6.40625-20.742188-4.640625-27.148438 3.949219-6.40625 8.585937-4.636718 20.742187 3.949219 27.148437l57.730469 43.066406c1.765625 1.320313 3.746094 2.328126 5.847656 2.980469 40.542969 12.578125 91.480469 28.253907 91.480469 28.253907l51.46875 86.898437c11.777343 19.890625 37.449219 26.460937 57.335937 14.683594zm0 0" fill="#ffb69e"/><path d="m316.425781 192.863281 19.105469-57.460937-37.203125-11.074219-17.101563 51.535156c-.082031.046875-.171874.085938-.253906.132813l-8.894531 5.265625c1.753906 2.996093 2.820313 6.457031 2.984375 10.117187.488281 10.859375-9.589844 20.109375-20.109375 20.109375-7.46875 0-13.632813-4.054687-17.097656-9.953125l-8.039063 4.761719-54.382812-16.890625-10.210938 37.445312c44.28125 13.765626 63.507813 19.582032 63.507813 19.582032l51.46875 86.898437c11.777343 19.886719 37.449219 26.457031 57.335937 14.679688l52.402344-31.039063zm0 0" fill="#64afff"/><path d="m76.125 102.222656c-19.394531-16.382812-48.398438-13.9375-64.777344 5.460938-16.378906 19.394531-13.933594 48.394531 5.460938 64.773437 19.394531 16.382813 48.398437 13.9375 64.777344-5.460937 16.378906-19.394532 13.933593-48.394532-5.460938-64.773438zm0 0" fill="#b4d7dc"/></svg>
