<svg height="40pt" viewBox="0 0 511 511.99998" width="40pt" xmlns="http://www.w3.org/2000/svg"><path d="m110.222656 490.761719-33.996094-131.347657c-2.34375-9.058593-.0625-18.691406 6.09375-25.738281 6.160157-7.046875 15.402344-10.597656 24.691407-9.488281l130.371093 15.570312c15.535157 1.855469 26.625 15.953126 24.769532 31.488282-1.855469 15.539062-25.488282 25.585937-25.488282 25.585937l-95.191406-11.464843 23.601563 91.199218c3.921875 15.148438-5.179688 30.605469-20.328125 34.523438-15.054688 3.902344-30.578125-5.085938-34.523438-20.328125zm0 0" fill="#ffb69e"/><path d="m208.25 309.132812-199.132812-192.960937c-11.238282-10.890625-11.519532-28.824219-.632813-40.0625 10.890625-11.234375 28.824219-11.519531 40.0625-.628906l199.132813 192.960937c11.238281 10.890625 11.523437 28.824219.632812 40.0625-10.910156 11.257813-28.847656 11.496094-40.0625.628906zm0 0" fill="#ffb69e"/><path d="m237.382812 339.757812-91.84375-10.96875 5.78125 57.765626 85.34375 10.277343s23.632813-10.046875 25.492188-25.582031c1.855469-15.539062-9.238281-29.636719-24.773438-31.492188zm0 0" fill="#414b82"/><path d="m247.679688 268.441406-73.394532-71.121094-41.796875 38.398438 75.761719 73.414062c11.214844 10.867188 29.152344 10.628907 40.0625-.628906 10.890625-11.238281 10.605469-29.175781-.632812-40.0625zm0 0" fill="#414b82"/><path d="m303.667969 196.667969-13.050781-18.679688c-2-2.855469-3.394532-6.089843-4.105469-9.5l-18.867188-90.609375c-2.898437-13.929687 6.039063-27.566406 19.964844-30.464844 13.925781-2.902343 27.566406 6.035157 30.464844 19.960938l17.792969 85.441406 12.222656 17.492188-5.066406 34.25zm0 0" fill="#ffb69e"/><path d="m385.503906 223.847656-37.414062-53.539062c-.085938 0-.171875.007812-.257813.007812l-44.164062 26.351563 39.609375 56.6875c8.113281 11.605469 24.15625 14.539062 35.867187 6.359375 11.65625-8.148438 14.503907-24.207032 6.359375-35.867188zm0 0" fill="#4699f2"/><path d="m236.664062 396.832031-23.582031-65.707031c-11.378906-31.707031 5.097657-66.636719 36.808594-78.015625l109.550781-39.320313c17.972656-6.449218 37.773438 2.890626 44.222656 20.863282l20.828126 58.03125c6.449218 17.972656-2.890626 37.773437-20.863282 44.222656zm0 0" fill="#64afff"/><path d="m501.804688 201.378906c-5.363282-27.757812-32.210938-45.910156-59.964844-40.546875-27.757813 5.363281-45.910156 32.210938-40.546875 59.964844s32.207031 45.90625 59.964843 40.546875c27.753907-5.363281 45.90625-32.210938 40.546876-59.964844zm0 0" fill="#ffb69e"/><path d="m265.75 457.222656c-6.476562-12.664062-1.464844-28.179687 11.199219-34.65625l72.722656-37.199218 10.824219-35.074219s19.390625-21.496094 32.980468-17.300781c13.59375 4.195312 16.042969 33.140624 16.042969 33.140624l-13.828125 44.808594c-2.050781 6.640625-6.695312 12.171875-12.882812 15.335938l-82.398438 42.148437c-12.691406 6.488281-28.195312 1.4375-34.660156-11.203125zm0 0" fill="#ffb69e"/><path d="m360.496094 350.292969 15.585937-50.503907c4.195313-13.59375 18.617188-21.210937 32.207031-17.015624 13.589844 4.195312 21.207032 18.613281 17.015626 32.207031l-15.789063 51.152343zm0 0" fill="#4699f2"/><path d="m224.523438 48.0625c0 26.542969-21.515626 48.0625-48.0625 48.0625-26.542969 0-48.0625-21.519531-48.0625-48.0625s21.519531-48.0625 48.0625-48.0625c26.546874 0 48.0625 21.519531 48.0625 48.0625zm0 0" fill="#b4d7dc"/></svg>
